HIERARCHY
ROOT Hips
{
	OFFSET -3.958830 18.904000 13.208200
	CHANNELS 6 Xposition Yposition Zposition Zrotation Yrotation Xrotation 
	JOINT LHipJoint
	{
		OFFSET 0.000000 0.000000 0.000000
		CHANNELS 3 Zrotation Yrotation Xrotation
		JOINT LeftUpLeg
		{
			OFFSET 1.800000 -1.400000 0.085000
			CHANNELS 3 Zrotation Yrotation Xrotation
			JOINT LeftLeg
			{
				OFFSET 2.215000 -6.000000 0.000000
				CHANNELS 3 Zrotation Yrotation Xrotation
				JOINT LeftFoot
				{
					OFFSET 2.500000 -6.900000 0.000000
					CHANNELS 3 Zrotation Yrotation Xrotation
					JOINT LeftToeBase
					{
						OFFSET 0.200000 -0.500000 1.950000
						CHANNELS 3 Zrotation Yrotation Xrotation
						End Site
						{
							OFFSET 0.000000 0.000000 0.000000
						}
					}
				}
			}
		}
	}
	JOINT RHipJoint
	{
		OFFSET 0.000000 0.000000 0.000000
		CHANNELS 3 Zrotation Yrotation Xrotation
		JOINT RightUpLeg
		{
			OFFSET -1.800000 -1.400000 0.085000
			CHANNELS 3 Zrotation Yrotation Xrotation
			JOINT RightLeg
			{
				OFFSET -2.215000 -6.000000 0.000000
				CHANNELS 3 Zrotation Yrotation Xrotation
				JOINT RightFoot
				{
					OFFSET -2.500000 -6.900000 0.000000
					CHANNELS 3 Zrotation Yrotation Xrotation
					JOINT RightToeBase
					{
						OFFSET -0.200000 -0.500000 1.950000
						CHANNELS 3 Zrotation Yrotation Xrotation
						End Site
						{
							OFFSET 0.000000 0.000000 0.000000
						}
					}
				}
			}
		}
	}
	JOINT LowerBack
	{
		OFFSET 0.000000 0.000000 0.000000
		CHANNELS 3 Zrotation Yrotation Xrotation
		JOINT Spine
		{
			OFFSET -0.087000 1.940000 -0.288900
			CHANNELS 3 Zrotation Yrotation Xrotation
			JOINT Spine1
			{
				OFFSET 0.000000 1.950000 0.060000
				CHANNELS 3 Zrotation Yrotation Xrotation
				JOINT Neck
				{
					OFFSET 0.000000 0.000000 0.000000
					CHANNELS 3 Zrotation Yrotation Xrotation
					JOINT Neck1
					{
						OFFSET 0.000000 1.600000 0.340000
						CHANNELS 3 Zrotation Yrotation Xrotation
						JOINT Head
						{
							OFFSET 0.000000 1.667000 -0.240000
							CHANNELS 3 Zrotation Yrotation Xrotation
							End Site
							{
								OFFSET 0.000000 0.000000 0.000000
							}
						}
					}
				}
				JOINT LeftShoulder
				{
					OFFSET 0.000000 0.000000 0.000000
					CHANNELS 3 Zrotation Yrotation Xrotation
					JOINT LeftArm
					{
						OFFSET 2.700000 1.550000 -0.730000
						CHANNELS 3 Zrotation Yrotation Xrotation
						JOINT LeftForeArm
						{
							OFFSET 5.450000 0.000000 0.000000
							CHANNELS 3 Zrotation Yrotation Xrotation
							JOINT LeftHand
							{
								OFFSET 3.450000 0.000000 0.000000
								CHANNELS 3 Zrotation Yrotation Xrotation
								JOINT LeftHandIndex1
								{
									OFFSET 0.750000 0.000000 0.000000
									CHANNELS 3 Zrotation Yrotation Xrotation
									End Site
									{
										OFFSET 0.000000 0.000000 0.000000
									}
								}
							}
						}
					}
				}
				JOINT RightShoulder
				{
					OFFSET 0.000000 0.000000 0.000000
					CHANNELS 3 Zrotation Yrotation Xrotation
					JOINT RightArm
					{
						OFFSET -2.700000 1.550000 -0.730000
						CHANNELS 3 Zrotation Yrotation Xrotation
						JOINT RightForeArm
						{
							OFFSET -5.450000 0.000000 0.000000
							CHANNELS 3 Zrotation Yrotation Xrotation
							JOINT RightHand
							{
								OFFSET -3.450000 0.000000 0.000000
								CHANNELS 3 Zrotation Yrotation Xrotation
								JOINT RightHandIndex1
								{
									OFFSET -0.750000 0.000000 0.000000
									CHANNELS 3 Zrotation Yrotation Xrotation
									End Site
									{
										OFFSET 0.000000 0.000000 0.000000
									}
								}
							}
						}
					}
				}
			}
		}
	}
}
MOTION
Frames: 14
Frame Time: 0.016667
0.138330 17.261920 -1.285290 0.840376 9.106834 8.241368 -15.201761 12.869263 3.127209 -2.260047 -5.593881 -19.546875 -1.618424 6.925415 36.495218 -0.177224 6.793880 2.595532 -0.399060 -0.715710 -0.574910 18.357113 -10.602490 2.718800 -4.413404 2.248931 -26.949891 7.862841 -5.568138 16.616013 0.455474 -3.282592 3.567988 -0.181460 1.179690 0.057060 -3.803213 -1.436819 -6.801091 7.447748 -1.645599 4.278111 -4.364071 -1.342616 1.699453 0.846091 -1.795824 -3.771806 -3.527854 -3.089046 23.726019 -3.783990 -4.072340 9.181920 -14.802281 9.979270 -0.584924 -62.970496 -7.924873 -1.999929 -24.918549 -59.288855 10.921752 -4.340834 3.203343 -0.012790 0.762700 -0.845710 0.228170 12.875562 -9.441443 -0.864942 61.115335 -2.641458 -8.250771 -2.155257 8.933891 -1.484415 2.127535 -1.225094 -0.581150 0.504260 0.529750 -0.010840 
0.144370 17.222510 -1.300380 0.919480 9.766638 8.325179 -15.206482 12.864977 3.165644 -2.294187 -5.839068 -19.749006 -1.313706 6.855022 37.272074 -0.143544 6.878707 2.572235 -0.389950 -0.708670 -0.558880 18.352631 -10.587942 2.728895 -4.551052 2.271516 -27.958387 7.754573 -5.851315 18.164504 0.438468 -3.380086 3.525180 -0.183660 1.165500 0.051110 -3.800697 -1.471371 -6.849744 7.536338 -1.907787 4.604180 -4.797795 -1.564936 1.120936 1.036963 -1.819659 -3.753017 -3.535513 -3.346447 23.574840 -4.061440 -4.036020 9.422470 -15.369261 10.032881 -0.731560 -62.495534 -8.107255 -1.608111 -25.272534 -60.699048 11.621597 -4.319071 3.216374 -0.010070 0.753230 -0.837450 0.236170 13.031329 -9.570408 -0.816167 60.850512 -3.025912 -8.203084 -2.469980 8.506157 -1.446051 2.146393 -1.232508 -0.578900 0.496630 0.507660 -0.012280 
0.160640 17.115330 -1.343080 0.910084 11.249382 8.353007 -15.196392 12.853528 3.226386 -2.230351 -6.318977 -20.037097 -0.617221 6.655806 38.814361 -0.092384 7.043707 2.498110 -0.383020 -0.704510 -0.567150 18.364289 -10.534932 2.803123 -4.927310 2.361434 -30.652229 7.687533 -6.795843 22.477579 0.372759 -3.771035 3.349803 -0.197280 1.135190 0.050510 -3.858866 -1.556176 -6.995799 8.267304 -2.690365 5.676279 -5.970539 -2.224988 -0.464283 1.258469 -2.336205 -3.578154 -4.400928 -3.492183 23.576590 -3.711770 -4.579160 9.455960 -16.835941 10.555420 -1.195979 -61.378283 -8.406038 -0.571027 -26.597564 -64.425911 13.742238 -4.273801 3.270697 0.007580 0.719790 -0.822250 0.236840 13.898147 -9.980253 -0.876132 59.269064 -3.652271 -7.827816 -3.026171 7.124081 -1.251560 2.184989 -1.229513 -0.561710 0.470230 0.503240 -0.008500 
0.182180 16.984880 -1.394800 0.272611 11.811825 8.025074 -15.141592 12.826560 3.167266 -1.737757 -6.357377 -19.772280 0.180247 6.467120 39.816137 -0.101391 7.154431 2.426858 -0.364600 -0.718230 -0.541660 18.429555 -10.443365 3.052244 -4.457954 2.998311 -34.935191 6.368550 -7.966532 29.586346 0.219621 -4.514347 3.029301 -0.215490 1.082970 0.053870 -4.041634 -1.538865 -7.204754 10.157418 -3.231912 7.234553 -7.954635 -2.536090 -1.983160 1.767722 -3.097357 -3.551113 -5.728914 -3.452964 24.091470 -2.858230 -5.299070 8.416150 -18.179956 10.944866 -1.770755 -60.425333 -9.289498 0.814312 -27.685361 -68.532805 15.943125 -4.217026 3.296323 0.082200 0.656700 -0.786850 0.217310 13.910695 -10.148451 -0.651391 58.388551 -4.183088 -7.611086 -3.705417 5.905142 -0.996992 2.209200 -1.193544 -0.559590 0.456020 0.515510 -0.033070 
0.192170 16.862360 -1.465640 -0.160895 12.531813 7.243663 -15.105059 12.778473 3.043524 -1.221267 -6.276434 -18.990535 0.759883 6.352801 40.274830 -0.098428 7.148577 2.403417 -0.331290 -0.698750 -0.481060 18.491905 -10.170405 3.522964 -5.063371 3.735702 -40.748795 5.604197 -10.037012 38.910092 -0.098501 -5.900480 2.507831 -0.236160 0.990450 0.012720 -4.183233 -1.701011 -7.592271 11.545385 -4.215686 9.981685 -9.960058 -3.117795 -3.515415 2.384303 -3.903637 -4.050207 -7.532721 -3.552360 25.943285 -1.371710 -6.427260 6.087170 -19.049220 10.194703 -1.947606 -59.163054 -10.209838 1.311354 -26.633087 -72.949433 16.561178 -4.097002 3.230263 0.200610 0.540090 -0.700640 0.199270 13.299928 -9.029167 0.037423 58.424468 -4.592658 -7.338305 -4.999966 3.145503 -0.447014 2.277203 -1.100674 -0.560160 0.487210 0.494080 -0.059150 
0.189240 16.744950 -1.548380 -0.291667 13.571851 5.897583 -15.118418 12.726965 2.936874 -0.645242 -6.444183 -18.101027 1.085928 6.398701 41.315010 -0.042823 7.209877 2.320590 -0.242850 -0.598400 -0.400530 18.517428 -9.751640 4.064673 -7.074518 3.938897 -46.494908 5.936977 -12.941575 47.851210 -0.538272 -7.609905 1.892297 -0.233000 0.827290 -0.013970 -4.190149 -2.116267 -8.084664 11.724471 -5.601613 13.853904 -11.636774 -4.092944 -5.004510 3.182807 -4.607104 -4.923506 -9.643973 -3.166806 28.919038 0.757150 -7.215530 2.615660 -19.358402 8.697756 -1.860333 -57.300386 -11.492985 1.266353 -20.793210 -77.734825 13.384771 -3.908341 3.198775 0.326830 0.382110 -0.565390 0.188810 12.022383 -7.203236 1.051705 58.984086 -5.027153 -7.385160 -5.475516 1.741195 -0.003983 2.340054 -1.033190 -0.509490 0.468310 0.435930 -0.082050 
0.166800 16.641690 -1.649660 -0.410132 14.740886 3.154618 -15.150454 12.758776 2.755314 0.466493 -6.376979 -15.906328 0.872326 6.705091 41.875075 -0.034340 7.327811 2.232462 -0.145240 -0.487130 -0.289860 18.516448 -9.362307 4.550209 -9.542935 3.561995 -50.949404 6.346880 -16.213567 56.419955 -1.050554 -9.357121 1.309444 -0.209360 0.683840 -0.042220 -4.131033 -2.630122 -8.508787 10.944854 -7.330681 19.019098 -12.833224 -5.362778 -5.005365 3.869977 -5.143574 -6.248635 -12.068371 -2.149382 33.006094 3.364490 -7.494120 -3.152140 -19.852508 4.778055 -1.159976 -53.778434 -12.703912 -0.775114 -4.101453 -83.011492 -0.212651 -3.712786 2.995407 0.501390 0.222410 -0.406860 0.170920 11.393028 -3.212011 2.614631 59.335509 -5.160349 -7.892970 -6.156170 2.080274 0.237756 2.339982 -0.926016 -0.492100 0.517030 0.391470 -0.119400 
0.143270 16.554570 -1.762440 -1.372440 15.428792 -1.037525 -15.177252 12.823883 2.508332 2.455808 -6.185749 -12.593285 0.283054 7.277158 42.481740 -0.005166 7.520191 2.092589 0.002640 -0.294620 -0.161900 18.514165 -9.061918 4.928958 -11.257846 3.273421 -53.949303 6.346796 -19.353895 64.807252 -1.582963 -11.015932 0.800019 -0.133770 0.501440 -0.065880 -4.070984 -3.020981 -8.781205 9.886435 -8.939493 24.943023 -13.100032 -6.426326 -3.157361 4.310252 -5.101278 -7.858525 -13.661960 -0.712170 37.563920 5.461830 -6.586140 -8.915780 -21.621183 -2.067942 -0.263536 -47.041159 -13.242733 -6.296018 48.846802 -87.569351 -48.214059 -3.357131 1.763377 0.634320 0.070760 -0.249140 0.154960 12.596258 3.029936 5.032774 57.048186 -5.450633 -8.428604 -6.090262 4.448643 0.096974 2.291625 -0.897858 -0.441920 0.521550 0.317930 -0.160380 
0.115480 16.498610 -1.894610 -2.618783 16.329798 -6.018010 -15.214708 12.842859 2.396761 4.909126 -6.765699 -9.799016 -0.963199 8.301553 44.607923 0.081599 8.099926 1.834949 0.139750 -0.130940 -0.000390 18.488881 -8.872386 5.077485 -12.417362 2.665203 -55.212197 5.627254 -21.870532 71.932948 -2.045853 -12.302148 0.421351 -0.065580 0.342980 -0.061260 -3.970538 -3.273544 -8.952731 8.396155 -10.332623 31.812871 -12.815620 -7.255821 0.334168 4.472130 -4.273835 -9.702353 -13.332101 -0.306794 40.945718 6.391130 -5.145710 -15.087050 -23.633307 -9.039211 1.516517 -37.934838 -14.726441 -2.848973 98.683332 -75.352103 -86.485579 -3.709525 -0.547606 0.760400 -0.049900 -0.094000 0.125060 14.378979 9.364404 7.747577 53.244856 -6.928619 -9.767600 -4.746926 10.688116 -0.360810 2.163503 -0.855901 -0.400940 0.535590 0.254040 -0.211660 
0.076650 16.470950 -2.008360 -3.610486 18.067604 -10.724758 -15.244551 12.878815 2.385774 6.496647 -7.803966 -7.710604 -1.286066 8.724680 47.180377 0.165750 8.638097 1.615523 0.217450 -0.040950 0.092160 18.448895 -8.861721 5.009564 -13.148082 1.577244 -54.651783 4.713794 -23.511986 76.654281 -2.343324 -13.095860 0.196003 -0.025530 0.248550 -0.055430 -3.894647 -3.393117 -9.018337 6.216687 -11.279239 38.459903 -11.930787 -8.319013 3.556574 4.138736 -2.967573 -11.736554 -11.780559 -0.094619 43.485278 7.600210 -3.676120 -18.536130 -24.694507 -15.773889 3.599771 -28.637275 -13.131467 -5.902848 109.868348 -69.034421 -97.884555 -3.853320 1.264786 0.850790 -0.121520 0.001140 0.106820 16.208468 14.708366 10.334229 49.677428 -9.766593 -11.538656 -3.686415 17.636869 -0.653374 2.010310 -0.859623 -0.386740 0.535890 0.219500 -0.251050 
0.058710 16.438510 -2.094210 -4.877338 19.430321 -13.997293 -15.225460 12.779012 2.410147 7.357909 -9.115848 -7.249699 -0.992912 8.805470 50.415883 0.278527 9.190464 1.425220 0.222260 -0.047990 0.114590 18.476273 -8.917799 4.903074 -13.386178 0.741488 -54.094023 3.667618 -24.686529 80.223019 -2.532141 -13.681028 0.043298 -0.038130 0.238550 -0.030640 -3.986608 -3.249653 -9.035431 6.054380 -12.501714 43.218793 -11.987090 -9.299984 5.088557 3.685492 -2.430480 -12.866766 -11.036150 -0.140996 43.501919 8.496960 -3.069210 -19.522300 -23.834667 -19.219097 4.266385 -22.666590 -11.685209 -8.156298 112.976062 -66.512746 -100.208692 -3.830825 1.629523 0.878370 -0.132290 0.025190 0.092160 16.172331 16.912250 11.908456 47.565869 -13.437914 -14.024242 -1.153850 25.289266 -0.636978 1.863222 -0.895136 -0.378400 0.525700 0.226670 -0.261170 
0.058790 16.419720 -2.146540 -5.877307 19.707885 -16.239475 -15.187089 12.664416 2.443006 7.912863 -9.969028 -7.200250 -0.916096 9.032260 52.953726 0.373399 9.642616 1.265035 0.186340 -0.086320 0.071600 18.519182 -9.028038 4.772828 -13.096941 0.577320 -53.130249 2.499610 -25.189723 82.964431 -2.637486 -14.090435 -0.052569 -0.060640 0.258170 -0.015330 -4.116321 -2.991687 -9.014725 6.383659 -13.696530 46.361072 -12.545413 -10.287117 5.432277 3.475775 -2.754243 -13.165865 -11.472848 0.530302 42.558052 9.043100 -2.522700 -19.272780 -22.368046 -19.579638 4.222779 -19.575592 -10.087384 -9.130755 115.002131 -64.746923 -101.344063 -3.821859 1.866577 0.869720 -0.116810 0.004640 0.074770 15.118251 16.831079 12.369330 44.895814 -16.098584 -15.750458 4.836689 31.951585 0.308914 1.757863 -0.957195 -0.376770 0.505570 0.265240 -0.257460 
0.053150 16.423020 -2.172460 -7.027999 18.573640 -17.746182 -15.121532 12.655735 2.453531 9.165227 -10.042186 -7.203024 -1.075288 9.479678 54.103257 0.449741 9.924350 1.181410 0.137760 -0.133510 0.007780 18.549728 -9.266796 4.571769 -11.154957 1.560258 -50.925371 1.622307 -24.732965 83.906113 -2.666582 -14.185856 -0.055392 -0.091060 0.305310 -0.005680 -4.257138 -2.639736 -8.916210 7.492114 -14.591761 47.878176 -13.360838 -10.545602 5.667558 3.474405 -3.467421 -13.458243 -12.547345 1.404045 41.603264 9.262580 -2.216830 -17.722800 -20.759380 -18.991358 4.225903 -18.098026 -8.357138 -9.535787 117.953157 -64.052464 -105.343960 -3.808410 2.158854 0.839930 -0.087630 -0.027440 0.079560 13.565748 16.556251 12.707001 41.886963 -18.667399 -16.849996 13.886282 37.507104 2.334759 1.700919 -1.064632 -0.377420 0.496250 0.295470 -0.233810 
0.037120 16.443900 -2.172170 -6.917255 16.959754 -18.117247 -15.082977 12.798147 2.478075 9.305539 -9.362797 -6.735041 -0.948088 9.580690 53.620820 0.467439 9.903352 1.220301 0.069190 -0.204260 -0.052430 18.529022 -9.575589 4.315528 -9.061699 2.499246 -47.575046 0.641353 -22.976960 82.848436 -2.554710 -13.830985 0.064342 -0.124890 0.365660 -0.025860 -4.282223 -2.431045 -8.774258 7.434239 -14.092961 48.138320 -13.609218 -10.120505 5.629421 3.508942 -3.889277 -13.479298 -13.058592 1.864426 40.836807 8.634260 -1.951600 -15.167460 -19.288498 -17.493064 3.919686 -17.211037 -7.417472 -9.186212 121.563048 -65.170872 -111.701145 -3.795812 2.441096 0.796940 -0.042350 -0.083490 0.080960 12.148886 15.575912 12.848625 38.810314 -21.542897 -17.298872 25.348035 42.248450 5.568299 1.672926 -1.196913 -0.403620 0.509970 0.324820 -0.220120 
